<svg xmlns="http://www.w3.org/2000/svg" viewBox="0 0 367.3 77"><defs><style>.cls-1{fill:#383d47;}.cls-2{fill:#fff;}.cls-3{fill:#91bfbb;}</style></defs><g id="Ebene_2" data-name="Ebene 2"><g id="Ebene_2-2" data-name="Ebene 2"><path class="cls-1" d="M142,38.47V56.63h-2.54V38.85c0-4.12-1.53-5.87-3.89-5.87-2.75,0-4.68,2.13-6.43,5.24V56.63h-2.53V38.85c0-4.12-1.53-5.87-3.89-5.87-2.76,0-4.72,2.13-6.43,5.24V56.63h-2.53V31.23h2.18l.22,4.32c1.7-2.91,4.11-4.86,7-4.86s5,1.9,5.68,5.06c1.71-3,4.15-5.06,7.17-5.06C139.67,30.69,142,33.66,142,38.47Z"/><path class="cls-1" d="M164.11,51c0,2.81.7,3.64,1.92,4.17l-.56,2c-2-.43-3.2-1.55-3.55-4.27a7.69,7.69,0,0,1-7.12,4.27c-4.42,0-7.08-3.06-7.08-7.57,0-5.35,3.63-8.26,9.48-8.26h4.38V38.9c0-4-1.49-5.83-5.29-5.83a17.07,17.07,0,0,0-6.21,1.46l-.66-2.14a17.63,17.63,0,0,1,7.22-1.7c5.2,0,7.47,2.87,7.47,8.07Zm-2.53-.59v-7h-4c-4.59,0-7.17,2-7.17,6,0,3.5,1.79,5.44,4.81,5.44S160.13,53.28,161.58,50.41Z"/><path class="cls-1" d="M172.24,56.63V20.88l2.54-.34V56.63Zm16.35,0h-3.06L175,42.74l9.62-11.51h2.93L178,42.59Z"/><path class="cls-1" d="M194.8,52.26c0,1.65.52,2.48,1.88,2.48a3.42,3.42,0,0,0,1.53-.34l.7,2.08a6.28,6.28,0,0,1-2.71.68c-2.45,0-3.94-1.55-3.94-4.9V20.88l2.54-.34Z"/><path class="cls-1" d="M219.5,45H204.24c.31,6.9,3.19,9.76,7.13,9.76,2.49,0,4.15-.87,6.16-2.52l1.18,1.8a10.66,10.66,0,0,1-7.47,3.1c-6,0-9.71-4.85-9.71-13s3.54-13.46,9.14-13.46c5.94,0,8.92,4.81,8.92,12.29C219.59,43.76,219.54,44.54,219.5,45Zm-2.4-2.91c0-5.54-2-9.08-6.34-9.08-3.54,0-6.25,2.91-6.52,9.81H217.1Z"/><path class="cls-1" d="M236.94,31l-.48,2.67a6.34,6.34,0,0,0-2-.29c-3.19,0-4.9,2.52-6.12,7.72V56.63h-2.54V31.23H228l.22,5.68c1.22-4.18,3.28-6.22,6.47-6.22A7.52,7.52,0,0,1,236.94,31Z"/><path class="cls-1" d="M280.35,38.47V56.63h-2.53V38.85c0-4.12-1.53-5.87-3.89-5.87-2.76,0-4.68,2.13-6.43,5.24V56.63H265V38.85c0-4.12-1.53-5.87-3.89-5.87-2.75,0-4.72,2.13-6.42,5.24V56.63h-2.54V31.23h2.19l.22,4.32c1.7-2.91,4.1-4.86,7-4.86s5,1.9,5.69,5.06c1.7-3,4.15-5.06,7.17-5.06C278.08,30.69,280.35,33.66,280.35,38.47Z"/><path class="cls-1" d="M305.84,43.86c0,8.2-3.67,13.3-9.71,13.3s-9.66-5-9.66-13.21,3.72-13.26,9.71-13.26S305.84,35.55,305.84,43.86ZM289.18,44c0,7.14,2.58,10.83,6.95,10.83s7-3.64,7-10.92-2.58-10.79-7-10.79S289.18,36.67,289.18,44Z"/><path class="cls-1" d="M328.48,56.63H326.3L326,52.74a7.55,7.55,0,0,1-6.86,4.42c-5.34,0-8.57-5-8.57-13.11,0-7.82,3.37-13.36,9-13.36A7.73,7.73,0,0,1,326,34.14V20.54l2.53.34ZM326,50.12V36.86c-1.36-2.13-3.19-3.83-6-3.83-4,0-6.73,3.83-6.69,11s2.41,10.83,6.25,10.83C322.54,54.83,324.37,53.13,326,50.12Z"/><path class="cls-1" d="M350.52,56.63l-.13-4.52c-1.62,3-3.94,5-7.48,5-4.11,0-6.47-2.76-6.47-7.77V31.23H339V49.1c0,4,1.53,5.73,4.5,5.73s5.11-2.18,6.69-5.19V31.23h2.53v25.4Z"/><path class="cls-1" d="M363.19,52.26c0,1.65.53,2.48,1.88,2.48a3.39,3.39,0,0,0,1.53-.34l.7,2.08a6.24,6.24,0,0,1-2.71.68c-2.44,0-3.93-1.55-3.93-4.9V20.88l2.53-.34Z"/><polygon class="cls-1" points="85.16 77 0 77 19.84 0 105 0 85.16 77"/><path class="cls-2" d="M74.43,39.26,54.37,19a2.55,2.55,0,0,0-3.73,0L30.57,39.26c-1,1.07-.64,2,.86,2h4.18V56.78c0,1.13,0,2,2.06,2h9.74V43.21H57.6V58.82H67.82c1.53,0,1.57-.91,1.57-2V41.21h4.19C75.07,41.21,75.45,40.33,74.43,39.26Z"/><rect class="cls-3" x="47.41" y="43.08" width="10.19" height="15.74"/></g></g></svg>